<svg width="22" height="26" viewBox="0 0 22 26" fill="none" xmlns="http://www.w3.org/2000/svg">
<g clip-path="url(#clip0_2_307)">
<path d="M20.7606 8.73515C16.8223 11.7566 17.2294 16.7931 21.5 19.1163C20.7211 21.4164 19.5392 23.4713 17.7404 25.1214C16.681 26.0922 15.4202 26.2034 14.1656 25.5932C12.3502 24.7105 10.5825 24.7147 8.78162 25.5995C7.46263 26.2474 6.16856 26.1447 5.14661 25.0711C1.62583 21.3661 -0.175055 17.0006 0.73266 11.8279C1.24572 8.9008 3.02168 6.90886 6.03147 6.39725C6.90388 6.24838 7.95284 6.33434 8.74216 6.70338C10.4246 7.48967 11.9285 7.34289 13.6068 6.67402C16.3487 5.57951 19.1362 6.45386 20.7606 8.73515Z" fill="white"/>
<path d="M16.062 0C16.3487 3.11581 13.8499 5.97161 11.0436 5.82903C10.4599 3.25839 13.181 0.0670968 16.062 0Z" fill="white"/>
</g>
<defs>
<clipPath id="clip0_2_307">
<rect width="21" height="26" fill="white" transform="translate(0.5)"/>
</clipPath>
</defs>
</svg>
