<svg width="17" height="26" viewBox="0 0 17 26" fill="none" xmlns="http://www.w3.org/2000/svg">
<g clip-path="url(#clip0_2_300)">
<path d="M10.905 20.3409C10.905 22.073 10.8956 23.8042 10.9132 25.5363C10.9167 25.8691 10.8264 25.9939 10.4006 25.9899C8.70106 25.9731 7.00148 25.9751 5.30307 25.9998C4.82568 26.0068 4.82803 25.8008 4.82803 25.5086C4.83507 22.0948 4.82217 18.681 4.8468 15.2673C4.85032 14.8018 4.73771 14.6414 4.15359 14.6671C3.12141 14.7127 2.08336 14.6681 1.04883 14.6869C0.665285 14.6938 0.492864 14.6305 0.499902 14.2611C0.524533 12.9587 0.519841 11.6554 0.502247 10.3521C0.497556 10.0342 0.601947 9.9193 0.996053 9.92624C2.08923 9.94703 3.18358 9.91732 4.27675 9.94208C4.7037 9.95199 4.83624 9.86483 4.83741 9.48354C4.84328 8.10001 4.75531 6.71449 4.91483 5.33095C5.27257 2.22715 7.80259 0.158286 11.4997 0.0265675C13.021 -0.0279024 14.547 0.019635 16.0694 0.00378917C16.4155 -0.000172281 16.5011 0.117681 16.4987 0.383098C16.4882 1.60323 16.487 2.82434 16.4999 4.04447C16.5034 4.31682 16.3721 4.36832 16.0835 4.37228C15.1287 4.38714 14.1693 4.29305 13.2192 4.4317C11.8422 4.63374 11.007 5.36363 10.9367 6.5382C10.8733 7.57511 10.9249 8.61598 10.9003 9.65488C10.8921 9.97972 11.1185 9.93515 11.3542 9.93416C12.7993 9.93218 14.2455 9.94901 15.6906 9.92326C16.1551 9.91534 16.2571 10.0332 16.1856 10.4026C15.931 11.7198 15.6953 13.0389 15.4748 14.3611C15.4255 14.6582 15.2355 14.6849 14.9516 14.6829C13.7799 14.676 12.6069 14.6998 11.4363 14.6701C10.9777 14.6582 10.8898 14.7879 10.8944 15.1454C10.9156 16.8766 10.9038 18.6087 10.9038 20.3409H10.905Z" fill="#FDFEFE"/>
</g>
<defs>
<clipPath id="clip0_2_300">
<rect width="16" height="26" fill="white" transform="translate(0.5)"/>
</clipPath>
</defs>
</svg>
