<svg width="27" height="26" viewBox="0 0 27 26" fill="none" xmlns="http://www.w3.org/2000/svg">
<g clip-path="url(#clip0_2_303)">
<path d="M22.6609 3.33735C21.378 4.59845 20.1827 5.77234 18.9422 6.99191C16.5021 5.16601 13.7851 4.61506 10.8336 5.72527C8.70438 6.52679 7.20107 8.01491 6.35192 10.0789C4.60276 14.3315 6.92414 19.0644 11.403 20.4584C15.4834 21.7292 19.9679 19.5226 20.9019 15.6826C19.7179 15.6826 18.5579 15.6826 17.3979 15.6826C16.2238 15.6826 15.0511 15.6826 13.819 15.6826C13.819 14.0145 13.819 12.3962 13.819 10.7406C17.9546 10.7406 22.0675 10.7406 26.3231 10.7406C26.3853 11.5781 26.5266 12.4198 26.4955 13.2545C26.3485 17.2385 25.108 20.7879 21.8697 23.4001C17.5095 26.919 10.3772 26.8442 5.71612 23.3073C1.39268 20.0265 -0.452558 14.672 0.974461 9.5418C2.38029 4.48494 6.83513 0.689175 12.2324 0.0911558C15.9553 -0.321367 19.3152 0.658721 22.2356 2.99543C22.3797 3.11032 22.5224 3.2266 22.6609 3.33735Z" fill="white"/>
</g>
<defs>
<clipPath id="clip0_2_303">
<rect width="26" height="26" fill="white" transform="translate(0.5)"/>
</clipPath>
</defs>
</svg>
