<svg width="84" height="84" viewBox="0 0 84 84" fill="none" xmlns="http://www.w3.org/2000/svg">
<mask id="mask0_2_274" style="mask-type:luminance" maskUnits="userSpaceOnUse" x="0" y="0" width="84" height="84">
<path d="M42 84C65.196 84 84 65.196 84 42C84 18.804 65.196 0 42 0C18.804 0 0 18.804 0 42C0 65.196 18.804 84 42 84Z" fill="white"/>
</mask>
<g mask="url(#mask0_2_274)">
<path d="M166.228 13.6677C146.373 13.6677 146.373 45.2365 126.521 45.2365C106.666 45.2365 106.666 13.6677 86.8138 13.6677C66.9635 13.6677 66.9635 35.2943 47.1131 35.2943C27.2606 35.2943 27.2606 6.21044 7.41026 6.21044C-12.4401 6.21044 -12.4401 27.837 -32.2904 27.837C-52.1429 27.837 -52.1429 3.72327 -71.9933 3.72327V49.9034H166.228V13.6677Z" fill="url(#paint0_linear_2_274)"/>
<path d="M166.228 62.0468C152.992 62.0468 152.992 30.4779 139.755 30.4779C126.519 30.4779 126.519 49.6195 113.282 49.6195C100.048 49.6195 100.048 30.4779 86.8117 30.4779C73.5753 30.4779 73.5753 44.6473 60.341 44.6473C47.1067 44.6473 47.1067 18.0485 33.8725 18.0485C20.6382 18.0485 20.6382 42.1601 7.40389 42.1601C-5.82825 42.1601 -5.82825 30.4758 -19.0625 30.4758C-32.2947 30.4758 -32.2947 44.6451 -45.5268 44.6451C-58.759 44.6451 -58.759 30.4758 -71.989 30.4758V89.0832H166.232V62.0468" fill="url(#paint1_linear_2_274)"/>
<path d="M166.228 45.2365C146.373 45.2365 146.373 76.8054 126.521 76.8054C106.666 76.8054 106.666 45.2365 86.8138 45.2365C66.9635 45.2365 66.9635 76.8054 47.1131 76.8054C27.2607 76.8054 27.2607 60.151 7.41029 60.151C-12.4401 60.151 -12.4401 76.8054 -32.2904 76.8054C-52.1429 76.8075 -52.1429 45.2365 -71.9933 45.2365V89.0832H166.228V45.2365Z" fill="url(#paint2_linear_2_274)"/>
</g>
<defs>
<linearGradient id="paint0_linear_2_274" x1="47.6493" y1="14.0428" x2="47.2393" y2="23.883" gradientUnits="userSpaceOnUse">
<stop stop-color="#D0E1FF"/>
<stop offset="1" stop-color="#00C7FF"/>
</linearGradient>
<linearGradient id="paint1_linear_2_274" x1="52.4243" y1="35.5663" x2="46.411" y2="63.0019" gradientUnits="userSpaceOnUse">
<stop stop-color="#FF83E2"/>
<stop offset="1" stop-color="#FF48CC"/>
</linearGradient>
<linearGradient id="paint2_linear_2_274" x1="49.5745" y1="58.6318" x2="43.1854" y2="80.8058" gradientUnits="userSpaceOnUse">
<stop stop-color="#9354F7"/>
<stop offset="1" stop-color="#7A2FE0"/>
</linearGradient>
</defs>
</svg>
